<mxfile host="app.diagrams.net" modified="2023-05-31T12:17:22.742Z" agent="Mozilla/5.0 (Macintosh; Intel Mac OS X 10_15_7) AppleWebKit/605.1.15 (KHTML, like Gecko) Version/16.5 Safari/605.1.15" etag="pGcVWc644iJQipHz8fRP" version="21.3.6" type="github">
  <diagram name="Page-1" id="_kbAUamdsEitSHpLiYVL">
    <mxGraphModel dx="1468" dy="1262" grid="1" gridSize="10" guides="1" tooltips="1" connect="1" arrows="1" fold="1" page="1" pageScale="1" pageWidth="827" pageHeight="1169" math="0" shadow="0">
      <root>
        <mxCell id="0" />
        <mxCell id="1" parent="0" />
        <mxCell id="F-h7AW0LBQ3TBnKWL7sb-7" value="AGW" style="rounded=0;whiteSpace=wrap;html=1;" vertex="1" parent="1">
          <mxGeometry x="43.5" y="380" width="620" height="100" as="geometry" />
        </mxCell>
        <mxCell id="F-h7AW0LBQ3TBnKWL7sb-1" style="edgeStyle=orthogonalEdgeStyle;rounded=0;orthogonalLoop=1;jettySize=auto;html=1;exitX=0.5;exitY=1;exitDx=0;exitDy=0;entryX=0.313;entryY=-0.033;entryDx=0;entryDy=0;entryPerimeter=0;" edge="1" parent="1" source="eteMdfNSblOHJH8BzZDT-1" target="eteMdfNSblOHJH8BzZDT-5">
          <mxGeometry relative="1" as="geometry" />
        </mxCell>
        <mxCell id="F-h7AW0LBQ3TBnKWL7sb-4" style="edgeStyle=orthogonalEdgeStyle;rounded=0;orthogonalLoop=1;jettySize=auto;html=1;exitX=0.25;exitY=1;exitDx=0;exitDy=0;entryX=0.346;entryY=0.019;entryDx=0;entryDy=0;entryPerimeter=0;" edge="1" parent="1" source="eteMdfNSblOHJH8BzZDT-1" target="eteMdfNSblOHJH8BzZDT-4">
          <mxGeometry relative="1" as="geometry" />
        </mxCell>
        <mxCell id="eteMdfNSblOHJH8BzZDT-1" value="Salesforce" style="whiteSpace=wrap;html=1;aspect=fixed;" parent="1" vertex="1">
          <mxGeometry x="100" y="140" width="110" height="110" as="geometry" />
        </mxCell>
        <mxCell id="F-h7AW0LBQ3TBnKWL7sb-2" style="edgeStyle=orthogonalEdgeStyle;rounded=0;orthogonalLoop=1;jettySize=auto;html=1;exitX=0.5;exitY=1;exitDx=0;exitDy=0;" edge="1" parent="1" source="eteMdfNSblOHJH8BzZDT-2" target="eteMdfNSblOHJH8BzZDT-5">
          <mxGeometry relative="1" as="geometry" />
        </mxCell>
        <mxCell id="eteMdfNSblOHJH8BzZDT-2" value="DIP" style="whiteSpace=wrap;html=1;aspect=fixed;" parent="1" vertex="1">
          <mxGeometry x="350" y="140" width="110" height="110" as="geometry" />
        </mxCell>
        <mxCell id="F-h7AW0LBQ3TBnKWL7sb-3" style="edgeStyle=orthogonalEdgeStyle;rounded=0;orthogonalLoop=1;jettySize=auto;html=1;exitX=0.5;exitY=1;exitDx=0;exitDy=0;entryX=0.353;entryY=-0.083;entryDx=0;entryDy=0;entryPerimeter=0;" edge="1" parent="1" source="eteMdfNSblOHJH8BzZDT-3" target="eteMdfNSblOHJH8BzZDT-6">
          <mxGeometry relative="1" as="geometry" />
        </mxCell>
        <mxCell id="eteMdfNSblOHJH8BzZDT-3" value="Internet Randoms" style="whiteSpace=wrap;html=1;aspect=fixed;" parent="1" vertex="1">
          <mxGeometry x="560" y="140" width="110" height="110" as="geometry" />
        </mxCell>
        <mxCell id="eteMdfNSblOHJH8BzZDT-4" value="" style="image;aspect=fixed;html=1;points=[];align=center;fontSize=12;image=img/lib/azure2/storage/Storage_Accounts.svg;" parent="1" vertex="1">
          <mxGeometry x="52.5" y="630" width="65" height="52" as="geometry" />
        </mxCell>
        <mxCell id="eteMdfNSblOHJH8BzZDT-5" value="" style="image;aspect=fixed;html=1;points=[];align=center;fontSize=12;image=img/lib/azure2/iot/Event_Hubs.svg;" parent="1" vertex="1">
          <mxGeometry x="320" y="626" width="67" height="60" as="geometry" />
        </mxCell>
        <mxCell id="eteMdfNSblOHJH8BzZDT-6" value="" style="image;aspect=fixed;html=1;points=[];align=center;fontSize=12;image=img/lib/azure2/compute/Function_Apps.svg;" parent="1" vertex="1">
          <mxGeometry x="590" y="630" width="68" height="60" as="geometry" />
        </mxCell>
        <mxCell id="F-h7AW0LBQ3TBnKWL7sb-5" value="" style="rounded=0;whiteSpace=wrap;html=1;" vertex="1" parent="1">
          <mxGeometry x="350" y="610" width="120" height="60" as="geometry" />
        </mxCell>
        <mxCell id="F-h7AW0LBQ3TBnKWL7sb-6" value="" style="rounded=0;whiteSpace=wrap;html=1;" vertex="1" parent="1">
          <mxGeometry x="350" y="610" width="120" height="60" as="geometry" />
        </mxCell>
        <mxCell id="F-h7AW0LBQ3TBnKWL7sb-8" value="filedrop" style="text;html=1;align=center;verticalAlign=middle;resizable=0;points=[];autosize=1;strokeColor=none;fillColor=none;" vertex="1" parent="1">
          <mxGeometry x="70" y="330" width="60" height="30" as="geometry" />
        </mxCell>
      </root>
    </mxGraphModel>
  </diagram>
</mxfile>
